G04 #@! TF.GenerationSoftware,KiCad,Pcbnew,(5.1.12)-1*
G04 #@! TF.CreationDate,2022-09-19T12:41:43+02:00*
G04 #@! TF.ProjectId,some_wave_v2,736f6d65-5f77-4617-9665-5f76322e6b69,rev?*
G04 #@! TF.SameCoordinates,Original*
G04 #@! TF.FileFunction,Legend,Bot*
G04 #@! TF.FilePolarity,Positive*
%FSLAX46Y46*%
G04 Gerber Fmt 4.6, Leading zero omitted, Abs format (unit mm)*
G04 Created by KiCad (PCBNEW (5.1.12)-1) date 2022-09-19 12:41:43*
%MOMM*%
%LPD*%
G01*
G04 APERTURE LIST*
%ADD10C,1.930000*%
%ADD11C,3.600000*%
%ADD12O,2.100000X2.100000*%
%ADD13C,2.400000*%
%ADD14C,2.650000*%
%ADD15C,2.450000*%
%ADD16O,2.900000X2.000000*%
%ADD17O,7.400000X3.900000*%
%ADD18C,2.000000*%
%ADD19C,2.800000*%
G04 APERTURE END LIST*
%LPC*%
D10*
X62788000Y-59055000D03*
X65328000Y-59055000D03*
X67818000Y-56515000D03*
X70358000Y-56515000D03*
D11*
X3078000Y-59055000D03*
G36*
G01*
X17783000Y-60020000D02*
X16253000Y-60020000D01*
G75*
G02*
X16053000Y-59820000I0J200000D01*
G01*
X16053000Y-58290000D01*
G75*
G02*
X16253000Y-58090000I200000J0D01*
G01*
X17783000Y-58090000D01*
G75*
G02*
X17983000Y-58290000I0J-200000D01*
G01*
X17983000Y-59820000D01*
G75*
G02*
X17783000Y-60020000I-200000J0D01*
G01*
G37*
D10*
X19558000Y-59055000D03*
X22098000Y-59055000D03*
X24638000Y-59055000D03*
X27178000Y-59055000D03*
X29718000Y-59055000D03*
X32258000Y-59055000D03*
X34798000Y-59055000D03*
D11*
X79248000Y-57785000D03*
D10*
X7874000Y-10795000D03*
D11*
X79248000Y-12065000D03*
X4318000Y-10795000D03*
X55118000Y-26035000D03*
D10*
X10414000Y-10795000D03*
X12954000Y-10795000D03*
X15494000Y-10795000D03*
X18034000Y-10795000D03*
X20574000Y-10795000D03*
X23114000Y-13335000D03*
X25654000Y-13335000D03*
X28194000Y-13335000D03*
X30734000Y-13335000D03*
X72898000Y-56515000D03*
X75438000Y-56515000D03*
X75438000Y-13335000D03*
X75438000Y-10795000D03*
D12*
X63754000Y-3175000D03*
G36*
G01*
X64804000Y-4865000D02*
X64804000Y-6565000D01*
G75*
G02*
X64604000Y-6765000I-200000J0D01*
G01*
X62904000Y-6765000D01*
G75*
G02*
X62704000Y-6565000I0J200000D01*
G01*
X62704000Y-4865000D01*
G75*
G02*
X62904000Y-4665000I200000J0D01*
G01*
X64604000Y-4665000D01*
G75*
G02*
X64804000Y-4865000I0J-200000D01*
G01*
G37*
D13*
X12192000Y-66167000D03*
D14*
X72009000Y-24130000D03*
X66929000Y-24130000D03*
X66929000Y-19050000D03*
X72009000Y-19050000D03*
D15*
X69469000Y-21590000D03*
D12*
X34290000Y-17526000D03*
G36*
G01*
X32600000Y-18576000D02*
X30900000Y-18576000D01*
G75*
G02*
X30700000Y-18376000I0J200000D01*
G01*
X30700000Y-16676000D01*
G75*
G02*
X30900000Y-16476000I200000J0D01*
G01*
X32600000Y-16476000D01*
G75*
G02*
X32800000Y-16676000I0J-200000D01*
G01*
X32800000Y-18376000D01*
G75*
G02*
X32600000Y-18576000I-200000J0D01*
G01*
G37*
X45085000Y-3175000D03*
G36*
G01*
X46135000Y-4865000D02*
X46135000Y-6565000D01*
G75*
G02*
X45935000Y-6765000I-200000J0D01*
G01*
X44235000Y-6765000D01*
G75*
G02*
X44035000Y-6565000I0J200000D01*
G01*
X44035000Y-4865000D01*
G75*
G02*
X44235000Y-4665000I200000J0D01*
G01*
X45935000Y-4665000D01*
G75*
G02*
X46135000Y-4865000I0J-200000D01*
G01*
G37*
X53086000Y-17526000D03*
G36*
G01*
X51396000Y-18576000D02*
X49696000Y-18576000D01*
G75*
G02*
X49496000Y-18376000I0J200000D01*
G01*
X49496000Y-16676000D01*
G75*
G02*
X49696000Y-16476000I200000J0D01*
G01*
X51396000Y-16476000D01*
G75*
G02*
X51596000Y-16676000I0J-200000D01*
G01*
X51596000Y-18376000D01*
G75*
G02*
X51396000Y-18576000I-200000J0D01*
G01*
G37*
D16*
X86995000Y-32385000D03*
X86995000Y-34925000D03*
D17*
X92075000Y-40005000D03*
X92075000Y-29845000D03*
D16*
X86995000Y-5588000D03*
X86995000Y-8128000D03*
D17*
X92075000Y-13208000D03*
X92075000Y-3048000D03*
D13*
X68447000Y-4683000D03*
X78047000Y-4683000D03*
D18*
X71247000Y-3683000D03*
X73247000Y-3683000D03*
X75247000Y-3683000D03*
X71247000Y-5683000D03*
X73247000Y-5683000D03*
X75247000Y-5683000D03*
D13*
X30988000Y-64008000D03*
X33528000Y-64008000D03*
D17*
X92075000Y-56642000D03*
X92075000Y-66802000D03*
D16*
X86995000Y-61722000D03*
X86995000Y-59182000D03*
D15*
X69469000Y-48133000D03*
D14*
X72009000Y-50673000D03*
X72009000Y-45593000D03*
X66929000Y-45593000D03*
X66929000Y-50673000D03*
G36*
G01*
X2864000Y-19428000D02*
X5264000Y-19428000D01*
G75*
G02*
X5464000Y-19628000I0J-200000D01*
G01*
X5464000Y-22028000D01*
G75*
G02*
X5264000Y-22228000I-200000J0D01*
G01*
X2864000Y-22228000D01*
G75*
G02*
X2664000Y-22028000I0J200000D01*
G01*
X2664000Y-19628000D01*
G75*
G02*
X2864000Y-19428000I200000J0D01*
G01*
G37*
D19*
X4064000Y-24328000D03*
X4064000Y-27828000D03*
G36*
G01*
X63412000Y-28160000D02*
X65112000Y-28160000D01*
G75*
G02*
X65312000Y-28360000I0J-200000D01*
G01*
X65312000Y-30060000D01*
G75*
G02*
X65112000Y-30260000I-200000J0D01*
G01*
X63412000Y-30260000D01*
G75*
G02*
X63212000Y-30060000I0J200000D01*
G01*
X63212000Y-28360000D01*
G75*
G02*
X63412000Y-28160000I200000J0D01*
G01*
G37*
D12*
X61722000Y-29210000D03*
X43307000Y-29210000D03*
G36*
G01*
X44997000Y-28160000D02*
X46697000Y-28160000D01*
G75*
G02*
X46897000Y-28360000I0J-200000D01*
G01*
X46897000Y-30060000D01*
G75*
G02*
X46697000Y-30260000I-200000J0D01*
G01*
X44997000Y-30260000D01*
G75*
G02*
X44797000Y-30060000I0J200000D01*
G01*
X44797000Y-28360000D01*
G75*
G02*
X44997000Y-28160000I200000J0D01*
G01*
G37*
G36*
G01*
X26709000Y-28160000D02*
X28409000Y-28160000D01*
G75*
G02*
X28609000Y-28360000I0J-200000D01*
G01*
X28609000Y-30060000D01*
G75*
G02*
X28409000Y-30260000I-200000J0D01*
G01*
X26709000Y-30260000D01*
G75*
G02*
X26509000Y-30060000I0J200000D01*
G01*
X26509000Y-28360000D01*
G75*
G02*
X26709000Y-28160000I200000J0D01*
G01*
G37*
X25019000Y-29210000D03*
X76073000Y-38481000D03*
G36*
G01*
X77123000Y-40171000D02*
X77123000Y-41871000D01*
G75*
G02*
X76923000Y-42071000I-200000J0D01*
G01*
X75223000Y-42071000D01*
G75*
G02*
X75023000Y-41871000I0J200000D01*
G01*
X75023000Y-40171000D01*
G75*
G02*
X75223000Y-39971000I200000J0D01*
G01*
X76923000Y-39971000D01*
G75*
G02*
X77123000Y-40171000I0J-200000D01*
G01*
G37*
G36*
G01*
X58835000Y-40171000D02*
X58835000Y-41871000D01*
G75*
G02*
X58635000Y-42071000I-200000J0D01*
G01*
X56935000Y-42071000D01*
G75*
G02*
X56735000Y-41871000I0J200000D01*
G01*
X56735000Y-40171000D01*
G75*
G02*
X56935000Y-39971000I200000J0D01*
G01*
X58635000Y-39971000D01*
G75*
G02*
X58835000Y-40171000I0J-200000D01*
G01*
G37*
X57785000Y-38481000D03*
X39370000Y-38481000D03*
G36*
G01*
X40420000Y-40171000D02*
X40420000Y-41871000D01*
G75*
G02*
X40220000Y-42071000I-200000J0D01*
G01*
X38520000Y-42071000D01*
G75*
G02*
X38320000Y-41871000I0J200000D01*
G01*
X38320000Y-40171000D01*
G75*
G02*
X38520000Y-39971000I200000J0D01*
G01*
X40220000Y-39971000D01*
G75*
G02*
X40420000Y-40171000I0J-200000D01*
G01*
G37*
D13*
X20320000Y-18415000D03*
X20320000Y-30353000D03*
X72644000Y-62556000D03*
X72644000Y-67056000D03*
X66144000Y-62556000D03*
X66144000Y-67056000D03*
M02*
