M48
INCH,TZ
T1C0.0079
T2C0.0160
T3C0.0240
T4C0.0315
T5C0.0323
T6C0.0350
T7C0.0394
T8C0.0433
T9C0.0472
T10C0.0591
T11C0.0669
T12C0.0791
%
G90
G05
T1
X3394Y-18232
X3394Y-18744
X3394Y-19256
X3394Y-19768
X3906Y-18232
X3906Y-18744
X3906Y-19256
X3906Y-19768
T2
X3200Y-17400
X5050Y-17400
X10400Y-16550
X11300Y-3600
X11500Y-14450
X13500Y-14850
X13750Y-3300
X14450Y-3600
X17050Y-3550
X17450Y-15150
X18000Y-24950
X18750Y-14450
X19400Y-23750
X19850Y-4150
X20700Y-22250
X20750Y-14850
X21150Y-3850
X21850Y-4150
X22450Y-11900
X22450Y-14150
X22550Y-22750
X24395Y-21745
X24550Y-3550
X26000Y-14450
X28000Y-14850
T3
X1050Y-18850
X2500Y-2500
X2500Y-5000
X2500Y-15000
X2500Y-20550
X2500Y-22500
X2500Y-25000
X2700Y-9600
X4000Y-9600
X5000Y-7500
X5000Y-9600
X5000Y-12500
X5000Y-22500
X5000Y-25000
X5100Y-2650
X5600Y-21300
X6400Y-9600
X7500Y-2500
X7500Y-5000
X7500Y-15000
X7500Y-17500
X7500Y-25000
X8550Y-8100
X8550Y-11100
X8900Y-13450
X9100Y-8700
X9100Y-9600
X9100Y-10500
X9650Y-950
X10000Y-7500
X10000Y-17500
X10000Y-20000
X10050Y-2500
X10050Y-4300
X10400Y-10100
X10850Y-16900
X10900Y-2950
X11650Y-13450
X12250Y-11500
X12500Y-17600
X12500Y-20000
X12500Y-22500
X12750Y-6100
X12800Y-8100
X13300Y-11950
X14250Y-6100
X14250Y-10100
X15000Y-5000
X15000Y-7500
X15000Y-10000
X15000Y-17600
X15000Y-20000
X15000Y-22500
X15700Y-950
X16109Y-13441
X17500Y-5000
X17500Y-7500
X17500Y-10000
X17500Y-17600
X17500Y-20000
X17500Y-22500
X18100Y-16900
X18450Y-2950
X19150Y-25000
X19500Y-11500
X19900Y-24250
X20000Y-7550
X20000Y-10000
X20000Y-22500
X20300Y-6100
X20500Y-11950
X21650Y-11500
X21750Y-24250
X22500Y-5000
X22500Y-7500
X22500Y-17600
X22500Y-20000
X22600Y-9900
X23100Y-950
X23400Y-13450
X23600Y-24250
X25000Y-5000
X25000Y-7500
X25000Y-17500
X25000Y-20000
X25350Y-16900
X26750Y-11500
X27500Y-5000
X27500Y-7500
X27500Y-10000
X27500Y-17500
X27500Y-20000
X27500Y-25000
X27800Y-11950
X28900Y-13450
X30000Y-7500
X30000Y-10000
X30000Y-12500
X30000Y-17500
X30000Y-25000
X30050Y-20000
X32450Y-1850
X32500Y-5000
X32500Y-7500
X32500Y-10000
X32500Y-12500
X32500Y-15000
X32500Y-17500
X32500Y-20000
X32500Y-25000
X35000Y-2500
X35000Y-7500
X35000Y-10000
X35000Y-17500
X35000Y-20000
X35000Y-25000
X37500Y-2500
X37500Y-7500
X37500Y-10000
X37500Y-12500
X37500Y-15000
X37500Y-17500
X37500Y-20000
X37500Y-25000
T4
X28050Y-1450
X28050Y-2237
X28837Y-1450
X28837Y-2237
X29625Y-1450
X29625Y-2237
T5
X3100Y-4250
X4100Y-4250
X5100Y-4250
X6100Y-4250
X6700Y-23250
X7100Y-4250
X7700Y-23250
X8100Y-4250
X8700Y-23250
X9100Y-5250
X9700Y-23250
X10100Y-5250
X10700Y-23250
X11100Y-5250
X11700Y-23250
X12100Y-5250
X12700Y-23250
X13700Y-23250
X24720Y-23250
X25720Y-23250
X26700Y-22250
X27700Y-22250
X28700Y-22250
X29700Y-4250
X29700Y-5250
X29700Y-22250
T6
X34250Y-2200
X34250Y-3200
X34250Y-12750
X34250Y-13750
X34250Y-23300
X34250Y-24300
T7
X4800Y-26050
X8000Y-7250
X8000Y-11950
X9850Y-11500
X10850Y-11500
X12200Y-25200
X12500Y-6900
X13200Y-25200
X13500Y-6900
X15500Y-15150
X15500Y-16150
X17050Y-11500
X17750Y-1250
X17750Y-2250
X18050Y-11500
X19900Y-6900
X20900Y-6900
X22750Y-15150
X22750Y-16150
X24300Y-11500
X25100Y-1250
X25100Y-2250
X25300Y-11500
X29950Y-15150
X29950Y-16150
T8
X26041Y-24628
X26041Y-26400
X28600Y-24628
X28600Y-26400
T9
X1600Y-8200
X1600Y-9578
X1600Y-10956
X26948Y-1844
X30727Y-1844
T10
X27350Y-8500
X27350Y-18950
T11
X26350Y-7500
X26350Y-9500
X26350Y-17950
X26350Y-19950
X28350Y-7500
X28350Y-9500
X28350Y-17950
X28350Y-19950
T12
X36250Y-1200
X36250Y-5200
X36250Y-11750
X36250Y-15750
X36250Y-22300
X36250Y-26300
T0
M30
